<svg xmlns="http://www.w3.org/2000/svg" viewBox="0 0 99 78.5"><defs><style>.cls-1{fill:none;stroke:#3fa9f5;stroke-linecap:round;stroke-linejoin:round;}</style></defs><title>Element 20</title><g id="Ebene_2" data-name="Ebene 2"><g id="Deadline"><path class="cls-1" d="M63.6,73H90.5a8,8,0,0,0,8-8V13.5a8,8,0,0,0-8-8H8.5a8,8,0,0,0-8,8V65a8,8,0,0,0,8,8H36.4"/><circle class="cls-1" cx="50" cy="57" r="21"/><line class="cls-1" x1="1" y1="21" x2="98" y2="21"/><line class="cls-1" x1="50" y1="44" x2="50" y2="57"/><line class="cls-1" x1="50" y1="57" x2="65.02" y2="63.09"/><line class="cls-1" x1="18.5" y1="0.5" x2="18.5" y2="9.5"/><line class="cls-1" x1="39.5" y1="0.5" x2="39.5" y2="9.5"/><line class="cls-1" x1="59.5" y1="0.5" x2="59.5" y2="9.5"/><line class="cls-1" x1="81.5" y1="0.5" x2="81.5" y2="9.5"/></g></g></svg>