<svg xmlns="http://www.w3.org/2000/svg" viewBox="0 0 78.81 106.1"><defs><style>.cls-1{fill:none;stroke:#3fa9f5;stroke-miterlimit:10;}.cls-2{fill:#3fa9f5;}</style></defs><title>Element 25</title><g id="Ebene_2" data-name="Ebene 2"><g id="Flight_cost" data-name="Flight cost"><path class="cls-1" d="M69.1,39.83H57.87s0,0,0,0L37.06,1a.89.89,0,0,0-1.68.43V39.78a0,0,0,0,1,0,0H10.93a3.15,3.15,0,0,1-2.67-1.49l-6.1-9.88a.9.9,0,0,0-1.66.47V66.82a.9.9,0,0,0,1.66.47L8.81,56.51A3.13,3.13,0,0,1,11.47,55H35.34a0,0,0,0,1,0,0V93.46a.89.89,0,0,0,1.68.42L57.83,55.05l0,0H69.29a6.52,6.52,0,0,0,2.75-.6c3.49-1.64,6.49-3.55,6.25-7.47-.22-3.67-2.94-5.07-6.64-6.62A6.6,6.6,0,0,0,69.1,39.83Z"/><path class="cls-2" d="M22.86,83a4.14,4.14,0,0,0-.81-.61c-.4-.24-.87-.48-1.41-.74A15.79,15.79,0,0,0,18.86,81a10.24,10.24,0,0,0-2-.41v6.22l.9.22c1.25.33,2.38.69,3.4,1.07a9.54,9.54,0,0,1,2.59,1.44,6,6,0,0,1,1.63,2.07,6.78,6.78,0,0,1,.58,3,7.47,7.47,0,0,1-.7,3.38,6.5,6.5,0,0,1-1.91,2.3,8.47,8.47,0,0,1-2.8,1.35,14.74,14.74,0,0,1-3.37.52v4H15v-4a18.77,18.77,0,0,1-4.91-1,17.73,17.73,0,0,1-4.34-2.21L8,94.59a7.17,7.17,0,0,0,1,.75,11,11,0,0,0,1.7.92,23.38,23.38,0,0,0,2.19.85,12.93,12.93,0,0,0,2.5.54V91.46l-.65-.16L14,91.1A23.33,23.33,0,0,1,10.86,90a8.22,8.22,0,0,1-2.25-1.4,5.24,5.24,0,0,1-1.35-1.87,6.49,6.49,0,0,1-.44-2.54A7.91,7.91,0,0,1,7.44,81a7.28,7.28,0,0,1,1.73-2.42A8.16,8.16,0,0,1,11.78,77,12.06,12.06,0,0,1,15,76.24V72.58h2.15v3.63a14.7,14.7,0,0,1,4.37,1A18,18,0,0,1,25.05,79Zm-10.94.36a2.16,2.16,0,0,0,.85,1.86,8.61,8.61,0,0,0,2.57,1.13V80.56Q11.92,80.77,11.92,83.4Zm8.74,11.69a2.15,2.15,0,0,0-1-1.9,10.74,10.74,0,0,0-2.8-1.26v5.79Q20.66,97.62,20.66,95.09Z"/></g></g></svg>