<svg xmlns="http://www.w3.org/2000/svg" viewBox="0 0 88.93 100.77"><defs><style>.cls-1{fill:none;stroke:#3fa9f5;stroke-miterlimit:10;}.cls-2{fill:#3fa9f5;}</style></defs><title>Element 19</title><g id="Ebene_2" data-name="Ebene 2"><g id="English_Skills" data-name="English Skills"><path class="cls-1" d="M32.78,28.25,4.09,8.4a3.25,3.25,0,1,1,3.7-5.35L38.13,24"/><rect class="cls-1" x="0.5" y="0.5" width="87.93" height="68.5" rx="10.33" ry="10.33"/><path class="cls-1" d="M54.61,39.52,85.17,60.67A3.25,3.25,0,1,1,81.47,66L49.4,43.83"/><path class="cls-1" d="M49.4,25.58,81.26,2.83a3.25,3.25,0,0,1,4.54.75A3.27,3.27,0,0,1,85,8.12L56.86,28.25"/><path class="cls-1" d="M38.13,44.72,8,66.24a3.26,3.26,0,0,1-4.54-.76A3.26,3.26,0,0,1,4.23,61l30-21.43"/><polygon class="cls-1" points="88.42 28.25 49.41 28.25 49.41 0.5 38.13 0.5 38.13 28.25 0.85 28.25 0.85 39.52 38.13 39.52 38.13 69 49.41 69 49.41 39.52 88.42 39.52 88.42 28.25"/><path class="cls-2" d="M21.2,89.19a11.74,11.74,0,0,1,.74-4.06,11.17,11.17,0,0,1,2.17-3.59A11,11,0,0,1,27.59,79a10.79,10.79,0,0,1,4.68-1,10.19,10.19,0,0,1,5.36,1.36A8.73,8.73,0,0,1,41,82.9l-3.35,2.31a6.07,6.07,0,0,0-1.08-1.6,5.38,5.38,0,0,0-1.36-1A5.91,5.91,0,0,0,33.69,82a7.58,7.58,0,0,0-1.55-.17,5.92,5.92,0,0,0-2.86.66,6.28,6.28,0,0,0-2,1.73A7.35,7.35,0,0,0,26,86.65a8.92,8.92,0,0,0,.06,5.53,7.61,7.61,0,0,0,1.35,2.42,6.64,6.64,0,0,0,2.08,1.68,5.78,5.78,0,0,0,2.68.63,6.87,6.87,0,0,0,1.58-.19,5.93,5.93,0,0,0,1.56-.6,5.78,5.78,0,0,0,1.38-1.06,4.83,4.83,0,0,0,1-1.56l3.57,2a6.83,6.83,0,0,1-1.53,2.23,9.39,9.39,0,0,1-2.25,1.63,11.42,11.42,0,0,1-2.67,1,11.76,11.76,0,0,1-2.78.35,9.65,9.65,0,0,1-4.4-1,11.61,11.61,0,0,1-3.43-2.64A12.13,12.13,0,0,1,22,93.42,11.52,11.52,0,0,1,21.2,89.19Z"/><path class="cls-2" d="M65,95.22v4.36H50.35V95.22h5.12V84.3a3.94,3.94,0,0,1-1,.88,15.69,15.69,0,0,1-1.53.85,11.36,11.36,0,0,1-1.71.65,6.12,6.12,0,0,1-1.57.25V82.42A4,4,0,0,0,51.22,82a14.82,14.82,0,0,0,1.83-1,14.58,14.58,0,0,0,1.57-1.14,3.61,3.61,0,0,0,.85-.88h4.94V95.22Z"/></g></g></svg>