<svg xmlns="http://www.w3.org/2000/svg" viewBox="0 0 81 48"><defs><style>.cls-1{fill:none;stroke:#3fa9f5;stroke-miterlimit:10;}.cls-2{fill:#3fa9f5;}</style></defs><title>Element 18</title><g id="Ebene_2" data-name="Ebene 2"><g id="Expensive"><path class="cls-1" d="M76.47,10.52a4.5,4.5,0,0,1,4,4.48V43A4.49,4.49,0,0,1,76,47.5H15a4.5,4.5,0,0,1-4.48-4"/><path class="cls-1" d="M71.48,5.52a4.5,4.5,0,0,1,4,4.48V38A4.49,4.49,0,0,1,71,42.5H10a4.5,4.5,0,0,1-4.48-4"/><rect class="cls-1" x="0.5" y="0.5" width="70" height="37" rx="4.5" ry="4.5"/><path class="cls-2" d="M42,13.7a3.38,3.38,0,0,0-.75-.57,13.92,13.92,0,0,0-1.3-.68,14.23,14.23,0,0,0-1.65-.63,8.64,8.64,0,0,0-1.86-.38v5.75l.83.2a32.71,32.71,0,0,1,3.15,1,8.4,8.4,0,0,1,2.39,1.33,5.5,5.5,0,0,1,1.52,1.91,6.42,6.42,0,0,1,.53,2.75,6.92,6.92,0,0,1-.65,3.12,5.83,5.83,0,0,1-1.76,2.13,7.85,7.85,0,0,1-2.6,1.25,13.12,13.12,0,0,1-3.11.48V35h-2V31.33a17.16,17.16,0,0,1-4.54-.95,16.12,16.12,0,0,1-4-2.05l2-3.95a6.07,6.07,0,0,0,.91.69,10.67,10.67,0,0,0,1.57.85,18.57,18.57,0,0,0,2,.78,11.33,11.33,0,0,0,2.31.5V21.48l-.59-.15q-.3-.07-.6-.18a21.39,21.39,0,0,1-2.95-1,7.46,7.46,0,0,1-2.07-1.29,4.76,4.76,0,0,1-1.25-1.73,6,6,0,0,1-.42-2.35,7.35,7.35,0,0,1,.58-3,6.64,6.64,0,0,1,1.6-2.25,7.41,7.41,0,0,1,2.41-1.46,10.76,10.76,0,0,1,3-.67V4h2V7.38a13.57,13.57,0,0,1,4,.9A16.25,16.25,0,0,1,44,10ZM31.86,14a2,2,0,0,0,.78,1.71,7.59,7.59,0,0,0,2.37,1V11.4C32.91,11.54,31.86,12.41,31.86,14Zm8.08,10.81A2,2,0,0,0,39,23.08a10.51,10.51,0,0,0-2.6-1.17v5.36C38.76,27.2,39.94,26.39,39.94,24.84Z"/></g></g></svg>