<svg xmlns="http://www.w3.org/2000/svg" viewBox="0 0 101.8 82.5"><defs><style>.cls-1{fill:none;}.cls-1,.cls-2{stroke:#005075;stroke-linecap:round;stroke-linejoin:round;}.cls-2{fill:#005075;}</style></defs><title>Element 16</title><g id="Ebene_2" data-name="Ebene 2"><g id="Opposite_Seasons" data-name="Opposite Seasons"><line class="cls-1" x1="19.8" y1="19" x2="19.8" y2="62.5"/><line class="cls-2" x1="26.8" y1="22.5" x2="20.31" y2="26.25"/><line class="cls-1" x1="12.8" y1="22.5" x2="19.3" y2="26.25"/><line class="cls-2" x1="12.8" y1="58" x2="19.3" y2="54.25"/><line class="cls-1" x1="26.8" y1="58" x2="20.31" y2="54.25"/><line class="cls-1" x1="0.97" y1="29.88" x2="38.64" y2="51.63"/><line class="cls-2" x1="7.5" y1="25.56" x2="7.5" y2="33.06"/><line class="cls-1" x1="0.5" y1="37.69" x2="7" y2="33.94"/><line class="cls-2" x1="31.24" y1="55.44" x2="31.24" y2="47.94"/><line class="cls-1" x1="38.24" y1="43.31" x2="31.75" y2="47.06"/><line class="cls-1" x1="38.64" y1="29.87" x2="0.97" y2="51.62"/><line class="cls-2" x1="39.11" y1="37.69" x2="32.61" y2="33.94"/><line class="cls-1" x1="32.11" y1="25.56" x2="32.11" y2="33.06"/><line class="cls-2" x1="1.36" y1="43.31" x2="7.86" y2="47.06"/><line class="cls-1" x1="8.37" y1="55.44" x2="8.37" y2="47.94"/><ellipse class="cls-1" cx="79.1" cy="41.55" rx="10.7" ry="10.95"/><line class="cls-1" x1="78.8" y1="18" x2="78.8" y2="23.5"/><line class="cls-1" x1="78.8" y1="58" x2="78.8" y2="63.5"/><line class="cls-1" x1="95.8" y1="41" x2="101.3" y2="41"/><line class="cls-1" x1="55.8" y1="41" x2="61.3" y2="41"/><line class="cls-1" x1="62.68" y1="24.88" x2="66.57" y2="28.77"/><line class="cls-1" x1="90.68" y1="52.88" x2="94.57" y2="56.77"/><line class="cls-1" x1="94.93" y1="24.88" x2="91.04" y2="28.77"/><line class="cls-1" x1="66.93" y1="52.88" x2="63.04" y2="56.77"/><path class="cls-1" d="M85.55.5H27.05A7.26,7.26,0,0,0,19.8,7.75V13.5"/><path class="cls-1" d="M12.8,82H71.3a7.25,7.25,0,0,0,7.25-7.25V69"/></g></g></svg>