<svg xmlns="http://www.w3.org/2000/svg" viewBox="0 0 104 94"><defs><style>.cls-1{fill:none;stroke:#3fa9f5;stroke-miterlimit:10;}</style></defs><title>Element 22</title><g id="Ebene_2" data-name="Ebene 2"><g id="Voltage"><path class="cls-1" d="M.89.5A2.58,2.58,0,0,0,.5.54V93.46a2.58,2.58,0,0,0,.39,0c3.65,0,6.61-5.71,6.61-12.75V13.25C7.5,6.21,4.54.5.89.5Z"/><path class="cls-1" d="M53.33,9.5H46.67a3.17,3.17,0,0,0-3.17,3.17v4.09a6.53,6.53,0,0,0-1.83-.26H36.33a6.83,6.83,0,0,0-6.83,6.83V68.67a6.83,6.83,0,0,0,6.83,6.83h5.34a6.53,6.53,0,0,0,1.83-.26v7.09a3.17,3.17,0,0,0,3.17,3.17h6.66a3.17,3.17,0,0,0,3.17-3.17V12.67A3.17,3.17,0,0,0,53.33,9.5Z"/><rect class="cls-1" x="15.5" y="28.5" width="14" height="6"/><rect class="cls-1" x="15.5" y="58.5" width="14" height="6" rx="3" ry="3"/><rect class="cls-1" x="71.5" y="17.5" width="32" height="49" rx="8.83" ry="8.83"/><rect class="cls-1" x="61.5" y="28.5" width="10" height="5"/><rect class="cls-1" x="61.5" y="52.5" width="10" height="5"/><rect class="cls-1" x="61.5" y="40.5" width="10" height="5"/></g></g></svg>