<svg xmlns="http://www.w3.org/2000/svg" viewBox="0 0 69 84"><defs><style>.cls-1{fill:none;stroke:#3fa9f5;stroke-miterlimit:10;}</style></defs><title>Element 21</title><g id="Ebene_2" data-name="Ebene 2"><g id="Public_Transport" data-name="Public Transport"><path class="cls-1" d="M18.5,68.5V80.25a3.26,3.26,0,0,1-3.25,3.25h-4.5A3.26,3.26,0,0,1,7.5,80.25V67.75a2.94,2.94,0,0,1,.15-.94,13.63,13.63,0,0,0,6.6,1.69Z"/><path class="cls-1" d="M59.49,67.66a.28.28,0,0,1,0,.09v12.5a3.26,3.26,0,0,1-3.25,3.25h-4.5a3.26,3.26,0,0,1-3.25-3.25V68.5"/><path class="cls-1" d="M18.5,68.5H54.75A13.76,13.76,0,0,0,68.5,54.75V14.25A13.76,13.76,0,0,0,54.75.5H14.25A13.76,13.76,0,0,0,.5,14.25v40.5A13.75,13.75,0,0,0,7.65,66.81"/><rect class="cls-1" x="10.5" y="14.5" width="49" height="26" rx="6.75" ry="6.75"/><circle class="cls-1" cx="14.5" cy="55.5" r="5"/><circle class="cls-1" cx="52.5" cy="55.5" r="5"/></g></g></svg>