<svg xmlns="http://www.w3.org/2000/svg" viewBox="0 0 97 91.47"><defs><style>.cls-1{fill:none;stroke:#3fa9f5;stroke-miterlimit:10;}.cls-2{fill:#3fa9f5;}</style></defs><title>Element 23</title><g id="Ebene_2" data-name="Ebene 2"><g id="Rainfall"><path class="cls-1" d="M24.5,46.5h-7A17,17,0,1,1,28.55,16.6a23,23,0,0,1,43.53-1.05"/><path class="cls-1" d="M73.5,15.5a23,23,0,0,0-22,16.1,17,17,0,1,0-11,29.9h33a23,23,0,0,0,0-46Z"/><line class="cls-2" x1="80.03" y1="72.47" x2="84.97" y2="67.53"/><rect class="cls-2" x="79" y="68.5" width="7" height="3" transform="translate(-25.33 78.84) rotate(-45)"/><circle class="cls-2" cx="80.03" cy="72.47" r="1.5"/><path class="cls-2" d="M80,74.47a2,2,0,0,1-1.42-.58,2,2,0,0,1,0-2.83h0a2.05,2.05,0,0,1,2.83,0,2,2,0,0,1,0,2.83A2,2,0,0,1,80,74.47Zm0-3a1,1,0,0,0-.71.29h0a1,1,0,0,0,0,1.41,1,1,0,0,0,1.41,0,1,1,0,0,0,0-1.41A1,1,0,0,0,80,71.48Z"/><circle class="cls-2" cx="84.97" cy="67.53" r="1.5"/><path class="cls-2" d="M85,69.52a2,2,0,0,1-1.41-.58,2,2,0,0,1,0-2.83h0a2.05,2.05,0,0,1,2.83,0,2,2,0,0,1,0,2.83A2,2,0,0,1,85,69.52Zm-.7-2.7a1,1,0,0,0,0,1.41,1,1,0,0,0,1.41,0,1,1,0,0,0,0-1.41A1,1,0,0,0,84.27,66.82Z"/><line class="cls-2" x1="80.03" y1="89.47" x2="84.97" y2="84.53"/><rect class="cls-2" x="79" y="85.5" width="7" height="3" transform="translate(-37.35 83.82) rotate(-45)"/><circle class="cls-2" cx="80.03" cy="89.47" r="1.5"/><path class="cls-2" d="M80,91.47a2,2,0,0,1-1.42-.58,2,2,0,0,1,0-2.83h0a2.06,2.06,0,0,1,2.83,0,2,2,0,0,1,0,2.83A2,2,0,0,1,80,91.47Zm0-3a1,1,0,0,0-.71.29h0a1,1,0,0,0,0,1.41,1,1,0,0,0,1.41,0,1,1,0,0,0,0-1.41A1,1,0,0,0,80,88.48Z"/><circle class="cls-2" cx="84.97" cy="84.53" r="1.5"/><path class="cls-2" d="M85,86.52a2,2,0,0,1-1.41-.58,2,2,0,0,1,0-2.83h0a2.05,2.05,0,0,1,2.83,0,2,2,0,0,1,0,2.83A2,2,0,0,1,85,86.52Zm-.7-2.7a1,1,0,0,0,0,1.41,1,1,0,0,0,1.41,0,1,1,0,0,0,0-1.41A1,1,0,0,0,84.27,83.82Z"/><line class="cls-2" x1="62.03" y1="72.47" x2="66.97" y2="67.53"/><rect class="cls-2" x="61" y="68.5" width="7" height="3" transform="translate(-30.61 66.11) rotate(-45)"/><circle class="cls-2" cx="62.03" cy="72.47" r="1.5"/><path class="cls-2" d="M62,74.47a2,2,0,0,1-1.42-.58,2,2,0,0,1,0-2.83h0a2.05,2.05,0,0,1,2.83,0,2,2,0,0,1,0,2.83A2,2,0,0,1,62,74.47Zm0-3a1,1,0,0,0-.71.29h0a1,1,0,0,0,0,1.41,1,1,0,0,0,1.41,0,1,1,0,0,0,0-1.41A1,1,0,0,0,62,71.48Z"/><circle class="cls-2" cx="66.97" cy="67.53" r="1.5"/><path class="cls-2" d="M67,69.52a2,2,0,0,1-1.41-.58,2,2,0,0,1,0-2.83h0a2.05,2.05,0,0,1,2.83,0,2,2,0,0,1,0,2.83A2,2,0,0,1,67,69.52Zm-.7-2.7a1,1,0,0,0,0,1.41,1,1,0,0,0,1.41,0,1,1,0,0,0,0-1.41A1,1,0,0,0,66.27,66.82Z"/><line class="cls-2" x1="62.03" y1="89.47" x2="66.97" y2="84.53"/><rect class="cls-2" x="61" y="85.5" width="7" height="3" transform="translate(-42.63 71.09) rotate(-45)"/><circle class="cls-2" cx="62.03" cy="89.47" r="1.5"/><path class="cls-2" d="M62,91.47a2,2,0,0,1-1.42-.58,2,2,0,0,1,0-2.83h0a2.06,2.06,0,0,1,2.83,0,2,2,0,0,1,0,2.83A2,2,0,0,1,62,91.47Zm0-3a1,1,0,0,0-.71.29h0a1,1,0,0,0,0,1.41,1,1,0,0,0,1.41,0,1,1,0,0,0,0-1.41A1,1,0,0,0,62,88.48Z"/><circle class="cls-2" cx="66.97" cy="84.53" r="1.5"/><path class="cls-2" d="M67,86.52a2,2,0,0,1-1.41-.58,2,2,0,0,1,0-2.83h0a2.05,2.05,0,0,1,2.83,0,2,2,0,0,1,0,2.83A2,2,0,0,1,67,86.52Zm-.7-2.7a1,1,0,0,0,0,1.41,1,1,0,0,0,1.41,0,1,1,0,0,0,0-1.41A1,1,0,0,0,66.27,83.82Z"/><line class="cls-2" x1="44.03" y1="72.47" x2="48.97" y2="67.53"/><rect class="cls-2" x="43" y="68.5" width="7" height="3" transform="translate(-35.88 53.38) rotate(-45)"/><circle class="cls-2" cx="44.03" cy="72.47" r="1.5"/><path class="cls-2" d="M44,74.47a2,2,0,0,1-1.42-.58,2,2,0,0,1,0-2.83h0a2.05,2.05,0,0,1,2.83,0,2,2,0,0,1,0,2.83A2,2,0,0,1,44,74.47Zm0-3a1,1,0,0,0-.71.29h0a1,1,0,0,0,0,1.41,1,1,0,0,0,1.41,0,1,1,0,0,0,0-1.41A1,1,0,0,0,44,71.48Z"/><circle class="cls-2" cx="48.97" cy="67.53" r="1.5"/><path class="cls-2" d="M49,69.52a2,2,0,0,1-1.41-.58,2,2,0,0,1,0-2.83h0a2.05,2.05,0,0,1,2.83,0,2,2,0,0,1,0,2.83A2,2,0,0,1,49,69.52Zm-.7-2.7a1,1,0,0,0,0,1.41,1,1,0,0,0,1.41,0,1,1,0,0,0,0-1.41A1,1,0,0,0,48.27,66.82Z"/><line class="cls-2" x1="44.03" y1="89.47" x2="48.97" y2="84.53"/><rect class="cls-2" x="43" y="85.5" width="7" height="3" transform="translate(-47.9 58.36) rotate(-45)"/><circle class="cls-2" cx="44.03" cy="89.47" r="1.5"/><path class="cls-2" d="M44,91.47a2,2,0,0,1-1.42-.58,2,2,0,0,1,0-2.83h0a2.06,2.06,0,0,1,2.83,0,2,2,0,0,1,0,2.83A2,2,0,0,1,44,91.47Zm0-3a1,1,0,0,0-.71.29h0a1,1,0,0,0,0,1.41,1,1,0,0,0,1.41,0,1,1,0,0,0,0-1.41A1,1,0,0,0,44,88.48Z"/><circle class="cls-2" cx="48.97" cy="84.53" r="1.5"/><path class="cls-2" d="M49,86.52a2,2,0,0,1-1.41-.58,2,2,0,0,1,0-2.83h0a2.05,2.05,0,0,1,2.83,0,2,2,0,0,1,0,2.83A2,2,0,0,1,49,86.52Zm-.7-2.7a1,1,0,0,0,0,1.41,1,1,0,0,0,1.41,0,1,1,0,0,0,0-1.41A1,1,0,0,0,48.27,83.82Z"/><line class="cls-2" x1="26.03" y1="72.47" x2="30.97" y2="67.53"/><rect class="cls-2" x="25" y="68.5" width="7" height="3" transform="translate(-41.15 40.66) rotate(-45)"/><circle class="cls-2" cx="26.03" cy="72.47" r="1.5"/><path class="cls-2" d="M26,74.47a2,2,0,0,1-1.41-.58,2,2,0,0,1,0-2.83h0A2,2,0,1,1,26,74.47Zm-.7-2.7a1,1,0,1,0,1.41,0,1,1,0,0,0-1.41,0Z"/><circle class="cls-2" cx="30.97" cy="67.53" r="1.5"/><path class="cls-2" d="M31,69.52a2,2,0,0,1-1.41-.58,2,2,0,0,1,0-2.83h0A2,2,0,1,1,31,69.52Zm-.7-2.7a1,1,0,1,0,1.41,0,1,1,0,0,0-1.41,0Z"/><line class="cls-2" x1="26.03" y1="89.47" x2="30.97" y2="84.53"/><rect class="cls-2" x="25" y="85.5" width="7" height="3" transform="translate(-53.17 45.63) rotate(-45)"/><circle class="cls-2" cx="26.03" cy="89.47" r="1.5"/><path class="cls-2" d="M26,91.47a2,2,0,0,1-1.41-.58,2,2,0,0,1,0-2.83h0A2,2,0,1,1,26,91.47Zm-.7-2.7a1,1,0,1,0,1.41,0,1,1,0,0,0-1.41,0Z"/><circle class="cls-2" cx="30.97" cy="84.53" r="1.5"/><path class="cls-2" d="M31,86.52a2,2,0,0,1-1.41-.58,2,2,0,0,1,0-2.83h0A2,2,0,1,1,31,86.52Zm-.7-2.7a1,1,0,1,0,1.41,0,1,1,0,0,0-1.41,0Z"/><line class="cls-2" x1="8.03" y1="72.47" x2="12.97" y2="67.53"/><rect class="cls-2" x="7" y="68.5" width="7" height="3" transform="translate(-46.42 27.93) rotate(-45)"/><circle class="cls-2" cx="8.03" cy="72.47" r="1.5"/><path class="cls-2" d="M8,74.47a2,2,0,0,1-1.41-.58,2,2,0,0,1,0-2.83h0A2,2,0,1,1,8,74.47Zm-.7-2.7a1,1,0,1,0,1.41,0,1,1,0,0,0-1.41,0Z"/><circle class="cls-2" cx="12.97" cy="67.53" r="1.5"/><path class="cls-2" d="M13,69.52a2,2,0,0,1-1.41-.58,2,2,0,0,1,0-2.83h0A2,2,0,1,1,13,69.52Zm-.7-2.7a1,1,0,1,0,1.41,0,1,1,0,0,0-1.41,0Z"/><line class="cls-2" x1="8.03" y1="89.47" x2="12.97" y2="84.53"/><rect class="cls-2" x="7" y="85.5" width="7" height="3" transform="translate(-58.44 32.91) rotate(-45)"/><circle class="cls-2" cx="8.03" cy="89.47" r="1.5"/><path class="cls-2" d="M8,91.47a2,2,0,0,1-1.41-.58,2,2,0,0,1,0-2.83h0A2,2,0,1,1,8,91.47Zm-.7-2.7a1,1,0,1,0,1.41,0,1,1,0,0,0-1.41,0Z"/><circle class="cls-2" cx="12.97" cy="84.53" r="1.5"/><path class="cls-2" d="M13,86.52a2,2,0,0,1-1.41-.58,2,2,0,0,1,0-2.83h0A2,2,0,1,1,13,86.52Zm-.7-2.7a1,1,0,1,0,1.41,0,1,1,0,0,0-1.41,0Z"/></g></g></svg>