<svg xmlns="http://www.w3.org/2000/svg" viewBox="0 0 113 94.5"><defs><style>.cls-1{fill:none;stroke:#005075;stroke-miterlimit:10;}</style></defs><title>Element 17</title><g id="Ebene_2" data-name="Ebene 2"><g id="Car"><path class="cls-1" d="M10.5,76.83A12,12,0,0,1,.5,65V44a12,12,0,0,1,12-12h88a12,12,0,0,1,12,12V65a12,12,0,0,1-8,11.31,11.8,11.8,0,0,1-4,.69h-73"/><circle class="cls-1" cx="19" cy="54.5" r="7.5"/><circle class="cls-1" cx="96" cy="54.5" r="7.5"/><path class="cls-1" d="M27.5,77h-15a12,12,0,0,1-2-.17"/><path class="cls-1" d="M27.5,77V87.69A6.33,6.33,0,0,1,21.19,94H16.81a6.33,6.33,0,0,1-6.31-6.31V76.83a12,12,0,0,0,2,.17Z"/><path class="cls-1" d="M104.5,76.31V87.69A6.33,6.33,0,0,1,98.19,94H93.81a6.33,6.33,0,0,1-6.31-6.31V77.5"/><path class="cls-1" d="M102,32.5,96,5.22A6,6,0,0,0,90.17.5H22.83A6,6,0,0,0,17,5.22L11,32.5"/></g></g></svg>