<svg xmlns="http://www.w3.org/2000/svg" viewBox="0 0 92.7 118"><defs><style>.cls-1{fill:none;stroke:#3fa9f5;stroke-miterlimit:10;}.cls-2{fill:#3fa9f5;}</style></defs><title>Element 24</title><g id="Ebene_2" data-name="Ebene 2"><g id="Visa_Text" data-name="Visa Text"><rect class="cls-1" x="0.5" y="0.5" width="91.7" height="117" rx="3.42" ry="3.42"/><circle class="cls-1" cx="46.5" cy="43.5" r="23.5"/><line class="cls-1" x1="46.5" y1="19.5" x2="46.5" y2="66.5"/><line class="cls-1" x1="22.5" y1="43.5" x2="69.5" y2="43.5"/><ellipse class="cls-1" cx="46.5" cy="43.5" rx="13" ry="23"/><path class="cls-2" d="M25.17,82.52l3.26,9.13,3.23-9.13h2.46l-4.7,12.07h-2L22.7,82.52Z"/><path class="cls-2" d="M38.82,94.59V82.52h2.34V94.59Z"/><path class="cls-2" d="M54.27,85.68a3,3,0,0,0-.43-.32,5,5,0,0,0-.77-.4,6.62,6.62,0,0,0-1-.33A4.3,4.3,0,0,0,51,84.49a2.37,2.37,0,0,0-1.44.36,1.18,1.18,0,0,0-.48,1,1,1,0,0,0,.18.62,1.54,1.54,0,0,0,.52.44,5,5,0,0,0,.86.34c.34.1.74.21,1.19.32s1.13.33,1.61.51a4.51,4.51,0,0,1,1.23.68,2.82,2.82,0,0,1,.77,1,3.24,3.24,0,0,1,.27,1.4,3.57,3.57,0,0,1-.36,1.66,3.13,3.13,0,0,1-1,1.11,4.31,4.31,0,0,1-1.43.62,7.18,7.18,0,0,1-1.69.2,9.19,9.19,0,0,1-2.69-.41,8.36,8.36,0,0,1-2.38-1.16l1-2a4,4,0,0,0,.55.4,8.28,8.28,0,0,0,.95.49,7.32,7.32,0,0,0,1.2.42,5.69,5.69,0,0,0,1.36.17c1.3,0,1.94-.42,1.94-1.24a1,1,0,0,0-.22-.67,1.86,1.86,0,0,0-.63-.47,6.29,6.29,0,0,0-1-.38l-1.3-.37A10.82,10.82,0,0,1,48.6,89a4,4,0,0,1-1.06-.66,2.41,2.41,0,0,1-.64-.89,3.05,3.05,0,0,1-.21-1.19A3.73,3.73,0,0,1,47,84.59,3.32,3.32,0,0,1,48,83.4a4.52,4.52,0,0,1,1.4-.72,6,6,0,0,1,1.72-.24,6.86,6.86,0,0,1,2.35.39,9.34,9.34,0,0,1,1.87,1Z"/><path class="cls-2" d="M64.13,82.52H66.2l4.59,12.07H68.38l-1.12-3H63l-1.1,3H59.52Zm2.7,7.41-1.66-4.74-1.74,4.74Z"/></g></g></svg>