<svg xmlns="http://www.w3.org/2000/svg" viewBox="0 0 44.62 41.57"><defs><style>.a{fill:#0e5074;}</style></defs><title>heartAdd</title><path class="a" d="M24.92,45.79,6.69,27.56A13.56,13.56,0,0,1,24.9,7.5,13.56,13.56,0,0,1,43.59,27.1h0l-.07.07-.23.24-.16.15Zm-8.67-40A12.12,12.12,0,0,0,7.71,26.54L24.92,43.75,41.67,27h0l.47-.46A12.12,12.12,0,0,0,25.41,9l-.49.47L24.43,9A12.09,12.09,0,0,0,16.25,5.82Z" transform="translate(-2.69 -4.21)"/><path class="a" d="M32.85,22.62v1.56h-7v7.57H24.14V24.18h-7V22.62h7V15.06h1.71v7.56Z" transform="translate(-2.69 -4.21)"/></svg>