<svg id="Ebene_1" data-name="Ebene 1" xmlns="http://www.w3.org/2000/svg" viewBox="0 0 660 531"><defs><style>.cls-1{fill:none;stroke:#005075;stroke-miterlimit:10;stroke-width:9.86px;}.cls-2{fill:#005075;}</style></defs><title>personenWarenHier</title><path class="cls-1" d="M366.64,311.1c0-73.5,63-133.1,140.67-133.1S648,237.6,648,311.1M579.28,85.9c0,40.74-32.8,73.78-73.3,73.78s-73.29-33-73.29-73.78S465.51,12.13,506,12.13,579.28,45.17,579.28,85.9Z"/><path class="cls-2" d="M317.88,209.86c0,58.28-46.37,105.56-103.55,105.56S110.78,268.14,110.78,209.86s46.35-105.54,103.55-105.54,103.55,47.25,103.55,105.54"/><path class="cls-1" d="M321.35,209.86c0,60.29-47.92,109.18-107,109.18s-107-48.89-107-109.18,47.91-109.17,107-109.17S321.35,149.56,321.35,209.86Z"/><path class="cls-2" d="M17.47,532.1c0-105.17,89-190.42,198.74-190.42S415,426.93,415,532.1"/><path class="cls-1" d="M14,532.1C14,424.92,104.53,338,216.21,338S418.42,424.92,418.42,532.1"/></svg>